PathFileType	4	(X/Y/Z)	G:\マイドライブ\biomec\experimentalData\240725\SJ3.trc
DataRate	CameraRate	NumFrames	NumMarkers	Units	OrigDataRate	OrigDataStartFrame	OrigNumFrames
200.00	200.00	      4	52	mm	200.00	202	      1608
Frame#	Time	handR			wrRI			wrRO			elbRI			elbRO			shRF			shRU			shRB			handL			wrLI			wrLO			elbLI			elbLO			shLF			shLU			shLB			toeR			baRI			baRO			heelR			anRI			anRO			knRI			knRO			troR			toeL			baLI			baLO			heelL			anLI			anLO			knLI			knLO			troL			head			earR			earL			clav			c7			ribR			ribL			xiph			ASISR			ASISL			PSISR			PSISL			t8			t11			L1			L3			LS			COX			
		X1	Y1	Z1	X2	Y2	Z2	X3	Y3	Z3	X4	Y4	Z4	X5	Y5	Z5	X6	Y6	Z6	X7	Y7	Z7	X8	Y8	Z8	X9	Y9	Z9	X10	Y10	Z10	X11	Y11	Z11	X12	Y12	Z12	X13	Y13	Z13	X14	Y14	Z14	X15	Y15	Z15	X16	Y16	Z16	X17	Y17	Z17	X18	Y18	Z18	X19	Y19	Z19	X20	Y20	Z20	X21	Y21	Z21	X22	Y22	Z22	X23	Y23	Z23	X24	Y24	Z24	X25	Y25	Z25	X26	Y26	Z26	X27	Y27	Z27	X28	Y28	Z28	X29	Y29	Z29	X30	Y30	Z30	X31	Y31	Z31	X32	Y32	Z32	X33	Y33	Z33	X34	Y34	Z34	X35	Y35	Z35	X36	Y36	Z36	X37	Y37	Z37	X38	Y38	Z38	X39	Y39	Z39	X40	Y40	Z40	X41	Y41	Z41	X42	Y42	Z42	X43	Y43	Z43	X44	Y44	Z44	X45	Y45	Z45	X46	Y46	Z46	X47	Y47	Z47	X48	Y48	Z48	X49	Y49	Z49	X50	Y50	Z50	X51	Y51	Z51	X52	Y52	Z52	

202	1.005	261.27725	1419.91199	816.32220	253.70663	1473.52649	894.10864	314.09341	1434.73560	900.61218	373.03757	1545.98303	1105.10876	299.03558	1539.68396	1121.44910	405.78842	1470.04614	1402.30383	343.60855	1559.93274	1390.32813	354.15869	1508.84534	1425.88184	806.72174	1609.89270	762.86224	777.15326	1654.96057	842.46924	769.10077	1578.41919	840.31696	680.00153	1646.79932	1063.13098	748.08240	1675.62988	1071.65405	713.38464	1558.73438	1361.71765	698.25330	1670.47412	1339.58142	740.89722	1619.49072	1379.49194	299.27045	1426.16687	40.06984	352.78339	1503.74915	57.64881	239.41626	1521.29980	99.46232	347.48877	1672.53040	175.61453	383.90683	1559.11609	184.72346	291.22958	1579.41699	205.52919	462.47647	1357.60852	481.96869	352.61792	1338.48303	492.96173	353.15631	1462.79102	874.71985	585.77393	1457.59778	55.97149	530.18402	1522.17114	54.86673	639.99359	1561.49878	50.66287	557.37891	1740.98181	41.86691	529.31519	1645.77087	134.45009	614.98273	1676.09326	108.04945	548.79187	1563.26624	477.28214	657.12469	1558.89575	473.95395	689.17688	1529.95825	860.36176	626.02136	1486.05725	1692.12024	523.00330	1447.05908	1538.89673	668.05267	1503.32410	1510.18457	566.45081	1495.12512	1378.28223	546.08923	1606.30823	1467.02515	429.25076	1467.84229	1104.37671	645.87170	1511.54797	1088.38757	557.87616	1456.79858	1225.67749	431.40390	1424.59595	968.92853	647.63141	1468.10571	970.84454	446.12540	1603.86206	988.35358	566.46271	1622.16333	991.73651	509.56723	1668.65076	1249.50061	508.51331	1639.83240	1123.32690	511.29068	1620.23718	1067.28284	507.42905	1614.89429	1020.93237	506.22897	1624.17102	982.56909	499.28030	1643.02869	879.46222	
203	1.010	261.93124	1417.51843	817.13745	254.49121	1471.15759	894.70465	314.79202	1433.21594	901.22925	373.66013	1544.61230	1105.58398	299.76810	1538.01245	1121.94275	407.35666	1468.75476	1402.52563	344.77209	1558.43408	1390.63904	355.47607	1507.08191	1426.29956	807.34332	1611.30554	762.68494	777.72864	1656.13660	842.29791	769.96887	1579.40015	840.02332	680.62396	1646.97766	1063.11768	748.60364	1676.15503	1071.50549	714.81262	1558.92908	1361.59802	698.89447	1670.36267	1339.21338	741.72998	1619.77979	1379.29871	301.18686	1420.95850	42.11510	353.94360	1499.13965	59.84578	240.92799	1516.06726	101.29136	348.77563	1667.10254	178.34299	384.85590	1553.88525	186.92267	292.45288	1574.17151	207.54933	464.18356	1352.36072	483.31210	354.26892	1332.58508	494.67645	353.61868	1461.08667	875.16510	585.87726	1457.50195	56.02563	530.23291	1521.74231	54.83538	640.06226	1561.47070	50.61192	557.75763	1740.47266	41.67011	529.36365	1645.62720	134.54445	615.03235	1675.99731	108.14839	549.22253	1562.03821	477.17932	657.52600	1558.20239	473.92868	689.80481	1529.21265	860.21594	628.41425	1485.21655	1692.22095	525.01392	1446.38293	1538.90283	670.02374	1502.89905	1509.93945	568.06641	1494.29358	1378.40356	547.13177	1605.76025	1467.03113	430.50360	1465.92981	1104.76904	646.77271	1510.76465	1088.42383	559.37885	1455.89490	1225.91919	433.06958	1422.44275	969.51581	649.05750	1466.72327	970.90967	446.40576	1602.02283	988.52405	566.82977	1620.85852	991.71082	510.11884	1667.33972	1249.44617	509.10153	1638.44934	1123.25513	511.72205	1618.82666	1067.48755	507.91904	1613.15417	1021.05695	506.38312	1622.40540	982.54987	499.29935	1641.05139	879.56079	
204	1.015	263.10388	1414.81970	817.76678	255.19481	1468.97974	895.29840	316.01154	1430.67334	901.81665	374.07312	1548.72327	1105.06311	300.57370	1536.24121	1122.33618	409.13516	1466.87256	1402.77148	346.39645	1556.34399	1391.03882	357.01019	1505.31677	1426.65466	807.27429	1613.99463	761.75635	778.15149	1657.20239	842.18805	771.32349	1580.37146	839.78992	681.32813	1646.92871	1063.01733	749.14148	1676.47522	1071.36096	716.07959	1558.97449	1361.36487	699.47162	1670.34534	1338.81213	742.71436	1620.18359	1379.04907	303.36722	1415.20032	44.20671	356.12344	1492.97632	62.06197	242.55304	1509.94788	102.96465	349.90457	1661.82654	179.85406	386.84100	1548.63843	189.12727	293.78235	1568.40674	209.48347	466.29538	1347.06775	485.19449	356.21967	1326.87732	496.16193	354.73572	1455.12073	876.82013	585.87598	1457.46033	55.91573	530.43781	1522.61792	55.10344	640.05487	1561.44165	50.56294	557.77979	1740.44885	41.74888	529.44751	1645.47351	134.67674	615.04407	1675.95935	108.23589	549.64026	1560.96875	477.13242	657.93115	1557.56726	473.88812	690.37842	1528.36719	859.99084	630.32239	1484.74805	1691.66797	526.99695	1445.56543	1538.83813	671.69733	1502.77771	1509.75378	569.68243	1493.62158	1378.52612	548.39447	1604.93115	1466.95898	432.12616	1463.88049	1105.00366	648.14172	1509.74426	1088.37402	560.90839	1454.36475	1226.17883	434.38126	1420.22107	969.98413	650.17804	1465.65869	970.87390	447.06064	1599.83984	988.62518	567.20502	1619.53198	991.63501	510.49426	1666.06189	1249.30334	509.36258	1636.74780	1123.12439	512.15839	1616.82104	1067.31116	508.45718	1611.43640	1021.20386	506.49582	1621.22656	982.71930	499.07047	1639.25562	879.72150	
205	1.020	264.08151	1412.59436	818.48499	255.95230	1466.57263	895.93262	316.57153	1429.32153	902.48804	374.44458	1547.25720	1105.19861	301.09161	1534.71985	1122.91895	410.74399	1465.72095	1403.09509	347.51910	1554.61743	1391.34692	358.67200	1503.43250	1426.87244	808.14313	1615.38550	761.52600	778.54871	1658.19067	842.02014	772.54877	1581.24792	839.53723	682.11969	1646.85425	1062.85815	749.60577	1676.89526	1071.18689	717.33905	1559.14990	1361.15637	700.07104	1670.36389	1338.51160	743.63971	1620.58057	1378.80420	305.35452	1409.23523	46.03549	358.12634	1487.20239	64.16969	244.27650	1503.70654	104.37534	351.27927	1655.56628	181.44846	387.95764	1542.95337	190.84532	295.08432	1562.70630	211.26299	467.91809	1342.07092	486.58899	357.99518	1321.28198	498.14734	356.15320	1451.81934	877.32593	585.74982	1457.46826	55.67546	530.44421	1522.58838	55.09279	640.09778	1561.42688	50.52409	557.78546	1740.43176	41.87729	529.49670	1645.26978	134.79228	615.08997	1675.82996	108.31747	549.94006	1559.78455	477.23111	658.35931	1556.67664	473.80606	690.91833	1527.61475	859.79883	632.85248	1483.92236	1691.73694	529.01501	1444.69629	1538.71863	674.00073	1502.61633	1508.77307	571.46082	1492.85681	1378.61438	549.63300	1604.02905	1467.01587	433.46158	1461.83569	1105.36340	649.09155	1508.97925	1088.39148	562.66602	1453.38403	1226.26453	435.59277	1418.19666	970.56812	651.18616	1464.73450	970.91193	447.23438	1597.65527	988.71185	567.45605	1617.82251	991.40186	511.15787	1664.61182	1249.19202	509.91064	1635.19275	1123.23914	512.79541	1615.26917	1067.22351	509.44519	1608.74268	1020.94385	506.83655	1619.73279	983.01392	498.85284	1637.40710	879.79742	
